<svg xmlns="http://www.w3.org/2000/svg" width="67.615" height="12.104" viewBox="0 0 67.615 12.104">
  <g id="그룹_16179" data-name="그룹 16179" transform="translate(-306.385 -20.227)">
    <g id="그룹_4" data-name="그룹 4" transform="translate(326.546 20.305)">
      <path id="패스_9" data-name="패스 9" d="M0,3.526a1.841,1.841,0,0,1,.374-.561A10.605,10.605,0,0,1,6.507.048a10.728,10.728,0,0,1,8.227,2.318,8.568,8.568,0,0,1,.86.785,1.981,1.981,0,0,1,.224.374v.3c0,.037-.037.037-.037.075a.75.75,0,0,1-1.234.3c-.449-.374-.9-.785-1.384-1.122a9.018,9.018,0,0,0-3.777-1.5A9.307,9.307,0,0,0,1.271,4.2.726.726,0,0,1,.037,3.9C.037,3.863,0,3.863,0,3.825,0,3.75,0,3.638,0,3.526Z" transform="translate(0 0.042)" fill="#19273b"/>
      <path id="패스_10" data-name="패스 10" d="M11.55,7.9a7.673,7.673,0,0,1,5.385,2.318.724.724,0,0,1,.037,1.047.694.694,0,0,1-1.047,0,6.116,6.116,0,0,0-3.4-1.758,6.378,6.378,0,0,0-5.572,1.608,2.249,2.249,0,0,1-.486.337.782.782,0,0,1-.86-.3.741.741,0,0,1,.112-.935A7.924,7.924,0,0,1,7.624,8.8,8.921,8.921,0,0,1,11.55,7.9Z" transform="translate(-3.435 -4.93)" fill="#19273b"/>
      <path id="패스_11" data-name="패스 11" d="M14.89,15.9a5.091,5.091,0,0,1,3.59,1.421.7.7,0,0,1,.224.748.73.73,0,0,1-1.234.337,3.572,3.572,0,0,0-1.683-.935,3.325,3.325,0,0,0-3.179.9.779.779,0,0,1-.785.224.736.736,0,0,1-.3-1.234,4.692,4.692,0,0,1,2.692-1.384A2.437,2.437,0,0,1,14.89,15.9Z" transform="translate(-7.075 -9.938)" fill="#19273b"/>
      <path id="패스_12" data-name="패스 12" d="M18.756,23.8a1.5,1.5,0,1,1,0,2.992,1.5,1.5,0,0,1,0-2.992Z" transform="translate(-10.828 -14.884)" fill="#19273b"/>
    </g>
    <path id="패스_13" data-name="패스 13" d="M.94,17.4a.931.931,0,0,0-.94.94v3.5a.931.931,0,0,0,.94.94.931.931,0,0,0,.94-.94v-3.5A.931.931,0,0,0,.94,17.4Z" transform="translate(306.385 9.448)" fill="#19273b"/>
    <path id="패스_14" data-name="패스 14" d="M12.04,11.9a.931.931,0,0,0-.94.94v5.565a.94.94,0,0,0,1.88,0V12.84A.931.931,0,0,0,12.04,11.9Z" transform="translate(299.459 12.88)" fill="#19273b"/>
    <path id="패스_15" data-name="패스 15" d="M23.04,6a.931.931,0,0,0-.94.94v7.783a.94.94,0,1,0,1.88,0V6.94A.931.931,0,0,0,23.04,6Z" transform="translate(292.595 16.562)" fill="#19273b"/>
    <path id="패스_16" data-name="패스 16" d="M34.14,0a.931.931,0,0,0-.94.94V10.98a.94.94,0,0,0,1.88,0V.94A.955.955,0,0,0,34.14,0Z" transform="translate(285.669 20.305)" fill="#19273b"/>
    <path id="패스_17" data-name="패스 17" d="M23.023,5.1H6.452A1.23,1.23,0,0,0,5.2,6.352V11.57a1.23,1.23,0,0,0,1.252,1.252h16.57a1.23,1.23,0,0,0,1.252-1.252V6.352A1.23,1.23,0,0,0,23.023,5.1Z" transform="translate(345.092 17.256)" fill="#19273b"/>
    <path id="패스_18" data-name="패스 18" d="M20.7,0H2.463A2.5,2.5,0,0,0,0,2.463V9.6a2.5,2.5,0,0,0,2.463,2.5h18.2a2.467,2.467,0,0,0,2.463-2.463V2.463A2.432,2.432,0,0,0,20.7,0Zm1.419,9.642A1.407,1.407,0,0,1,20.7,11.061H2.463A1.407,1.407,0,0,1,1.043,9.642V2.463A1.407,1.407,0,0,1,2.463,1.043h18.2a1.417,1.417,0,0,1,1.461,1.419Z" transform="translate(348.122 20.227)" fill="#19273b" opacity="0.383"/>
    <path id="패스_19" data-name="패스 19" d="M59.235,9.4H58.4v4.3h.877a.642.642,0,0,0,.626-.626V10.068A.659.659,0,0,0,59.235,9.4Z" transform="translate(314.097 14.75)" fill="#19273b" opacity="0.379"/>
  </g>
</svg>
