<?xml version="1.0" encoding="utf-8"?>
<!-- Generator: Adobe Illustrator 25.0.1, SVG Export Plug-In . SVG Version: 6.00 Build 0)  -->
<svg version="1.1" id="레이어_1" xmlns="http://www.w3.org/2000/svg" xmlns:xlink="http://www.w3.org/1999/xlink" x="0px"
	 y="0px" viewBox="0 0 26.2 26.9" style="enable-background:new 0 0 26.2 26.9;" xml:space="preserve">
<style type="text/css">
	.st0{fill:#FFFFFF;}
	.st1{fill:#A0CEF5;}
</style>
<g id="그룹_16021" transform="translate(-312 -502)">
	<g transform="matrix(1, 0, 0, 1, 312, 502)">
		<circle id="Dot_2-2_1_" class="st0" cx="12.3" cy="12.7" r="12"/>
	</g>
	<g id="Checkmark" transform="translate(326.809 515)">
		<path id="패스_71" class="st1" d="M-8.3-0.8c0.5-0.4,1.1-0.4,1.5,0.1l0,0l2.3,2.4L2.4-5c0.4-0.4,1.1-0.4,1.5,0l0,0
			c0.4,0.4,0.4,1.1,0,1.5l0,0L-3.8,4c0,0.2-0.2,0.3-0.3,0.3l0,0h-0.1h-0.4c0,0-0.1,0-0.2,0l0,0C-4.9,4.2-5.1,4.1-5.2,4l-3.2-3.2
			C-8.8,0.3-8.8-0.3-8.3-0.8L-8.3-0.8z"/>
	</g>
</g>
</svg>
